<svg preserveAspectRatio="none" width="100%" height="100%" overflow="visible" style="display: block;" viewBox="0 0 5.575 3.275" fill="none" xmlns="http://www.w3.org/2000/svg">
<path id="_shape" d="M2.7875 3.275C2.72083 3.275 2.65833 3.26458 2.6 3.24375C2.54167 3.22292 2.4875 3.1875 2.4375 3.1375L0.1375 0.8375C0.0458333 0.745833 0 0.629167 0 0.4875C0 0.345833 0.0458333 0.229167 0.1375 0.1375C0.229167 0.0458333 0.345833 0 0.4875 0C0.629167 0 0.745833 0.0458333 0.8375 0.1375L2.7875 2.0875L4.7375 0.1375C4.82917 0.0458333 4.94583 0 5.0875 0C5.22917 0 5.34583 0.0458333 5.4375 0.1375C5.52917 0.229167 5.575 0.345833 5.575 0.4875C5.575 0.629167 5.52917 0.745833 5.4375 0.8375L3.1375 3.1375C3.0875 3.1875 3.03333 3.22292 2.975 3.24375C2.91667 3.26458 2.85417 3.275 2.7875 3.275Z" fill="var(--fill-0, #FBFBFB)" style="fill:#FBFBFB;fill:color(display-p3 0.9843 0.9843 0.9843);fill-opacity:1;"/>
</svg>
